<svg id="c0f35996-0eb0-4c91-a318-35b6cdc614b3" data-name="圖層 1" xmlns="http://www.w3.org/2000/svg" viewBox="0 0 802.01 435.15"><defs><style>.\31 33f4c5b-58d2-4830-9498-78faf61683e2{fill:#fff;stroke:#000;stroke-miterlimit:10;}</style></defs><title>demosvg</title><path class="133f4c5b-58d2-4830-9498-78faf61683e2" d="M263.5,431.5s-25-251,135-247,166,417,306,347c34.77-17.38,48.57-61.72,52.38-115.48C768.42,253.29,688.46,4.17,821.5,154.5c177,200,190,300,97,294s-213-101-236-145-3-47-80-90-56-48-150-66-135-52-148-12-16,71-16,82,64,65,82,83,15,58,28,88,46,30,1,68-99,72-106,75-10,4-19,4-32,12-53,4-47-38-47-46" transform="translate(-174 -107.6)"/></svg>